<?xml version="1.0" encoding="UTF-8"?>
<!-- Generator: Adobe Illustrator 25.2.0, SVG Export Plug-In . SVG Version: 6.00 Build 0)  -->
<svg xmlns="http://www.w3.org/2000/svg" xmlns:xlink="http://www.w3.org/1999/xlink" version="1.1" id="Layer_1" x="0px" y="0px" viewBox="0 0 141.7 141.7" style="enable-background:new 0 0 141.7 141.7;" xml:space="preserve">
<style type="text/css">
	.st0{fill:#C00000;}
</style>
<g>
	<path class="st0" d="M105.1,71.8c-2.9,2.1-5.8,3.7-9.2,4.9c0-1.6,0.1-3,0-4.5c-0.1-1.2,0.5-1.8,1.5-2.3c3.5-1.7,6.5-4.1,8.6-7.4   c0.7-1.1,1.6-1.6,2.9-1.5c0.7,0.1,1.4,0,2.2,0c0,12.9,0,25.9,0,38.8c-2,0-4,0-6,0C105.1,90.5,105.1,81.2,105.1,71.8z"></path>
	<path class="st0" d="M43,93.7c5.8,0,11.5,0,17.1,0c0,2,0,4,0,6c-8.6,0-17.2,0-25.8,0c-0.2-1,0-2,0.2-3c0.7-2.9,2.2-5.4,4.3-7.4   c2.7-2.6,5.5-5.1,8.2-7.6c1.5-1.4,3-2.8,4.5-4.2c1.1-1.1,1.9-2.5,2.4-4.1c0.8-3-0.8-5.9-3.7-6.7c-2.7-0.7-5.2-0.5-7.3,1.6   c-1.3,1.4-1.6,3.2-1.6,5.1c0,0.2,0,0.4,0,0.7c-2-0.3-4-0.5-6-0.8c0-2.1,0.4-4.1,1.2-5.9c1.2-2.4,3-4.1,5.5-5.2c4-1.7,8-1.7,12,0.1   c4.8,2.1,6.9,7.2,6,12c-0.5,2.7-1.8,5.1-3.7,7c-2,2.1-4.2,4-6.4,6c-2,1.8-4,3.6-5.9,5.4C43.7,92.9,43.4,93.3,43,93.7z"></path>
	<path d="M65.6,0c0.8,0.1,1.6,0.3,2.4,0.4c5.4,0.9,9.3,3.9,12,8.7c1.3,2.3,2.2,4.7,2.7,7.2c0.1,0.7,0.5,1.1,1.2,1.4   c5.2,2.1,10.3,4.6,14.8,8c2.4,1.8,4.5,3.9,5.8,6.5c2,4,1.3,8.3-2.1,11.3c-3.2,2.8-6.5,5.5-9.7,8.3c-1.8,1.6-3.6,3.3-5.2,5.1   c-2.3,2.6-3.3,5.8-3.8,9.1c-0.7,4.6-0.7,9.2-0.1,13.8c0.5,4.5,1.1,9,1.6,13.5c0.8,7.6,0.5,15.1-1.8,22.5c-1.6,5.3-4.2,10-8.1,13.9   c-2,2-4.3,3.7-6.8,5.1c-0.2,0.1-0.4,0.2-0.6,0.3c0,0.1,0,0.1,0,0.2c0.8,0,1.6,0.1,2.4,0.1c9,0.2,17.6-1.6,25.7-5.6   c11.8-6,21.1-14.6,27.5-26.3c3.4-6.2,5.1-12.9,5.5-20c0.5-10.3-1.8-19.9-6.2-29.1c-0.6-1.2-1.1-2.3-1.7-3.5c1.5-0.9,3-1.7,4.6-2.7   c1,2,2,4,3,6c2.7,5.9,4.4,12.1,5.3,18.6c2,15.7-1.8,29.9-11.6,42.3c-6.6,8.3-14.6,14.9-24.1,19.6c-6.3,3.1-13,5.1-20.1,5.7   c-1.2,0.1-2.4,0.2-3.6,0.3c-0.1,0-0.2,0.1-0.4,0.1c-1.4,0-2.9,0-4.3,0c-0.2,0-0.4-0.1-0.6-0.1c-1.7-0.1-3.4-0.2-5.2-0.4   c-4.8-0.5-9.5-1.8-14.1-3.3c-8.8-3-16.5-7.7-23-14.3c-5.4-5.4-9.9-11.5-13.2-18.5c-2.7-5.6-4.6-11.4-5.3-17.6   c-0.1-1-0.3-2.1-0.4-3.1c0-2,0-4,0-6.1c0-0.1,0.1-0.2,0.1-0.4c0.1-1.1,0.2-2.3,0.4-3.4c0.7-4.6,1.7-9.2,2.9-13.7   C14.5,48,21,38,31,30.3c3.9-3,7.9-5.7,12.1-8.2c0.5-0.3,0.9-0.7,0.8-1.4c-0.4-2.9,0.1-5.7,1.3-8.4c1.6-3.8,4.5-6.6,7.7-9.1   c0.8-0.6,1.7-1.1,2.7-1.4c1.9-0.6,3.8-0.9,5.6-1.3c1-0.2,1.9-0.3,2.9-0.5C64.6,0,65.1,0,65.6,0z M45.5,26.8   c-0.3,0.2-0.5,0.3-0.7,0.4c-3.9,2.4-7.8,5-11.4,7.9c-7.6,6.1-13,13.7-15.9,23.1C16,63.1,15,68.1,14,73.1c-0.8,4.4-0.9,8.9-0.3,13.3   c0.8,5.9,2.6,11.4,5.3,16.7c4.2,8.3,9.9,15.2,17.2,20.8c5.6,4.3,11.6,7.5,18.7,8.5c1.6,0.2,3.2,0.5,4.9,0.1c5-1.3,9.4-3.8,12.8-7.7   c3.2-3.6,5-7.9,6.2-12.5c1.3-5,1.6-10,1.2-15.1c-0.4-4.7-1-9.4-1.5-14.1c-0.7-5.5-1-11-0.3-16.5c0.5-4,1.6-7.7,3.8-11.2   c1.8-2.9,4.3-5.3,6.9-7.5c3.2-2.7,6.4-5.4,9.6-8.1c1.1-0.9,1.9-2.1,1.6-3.5c-0.1-0.8-0.5-1.7-0.9-2.4c-1.2-2-3.1-3.5-5-4.8   c-4.3-3-9-5.2-13.9-7.1c-1.5-0.6-2.4-1.6-2.7-3.2c-0.4-1.9-0.8-3.7-1.5-5.5c-1.4-3.7-3.9-6.3-7.7-7.4c-2.1-0.6-4.2-0.5-6.4-0.3   c-3.8,0.4-7.1,2-9.6,4.9c-2.8,3.2-4,6.8-3.1,11.1c0.7,3,2.3,5.6,4.2,8c0.3,0.3,0.6,0.7,0.9,1c-1.2,1.3-2.3,2.6-3.5,4   C48.7,32.4,46.9,29.7,45.5,26.8z"></path>
	<path d="M76.3,34.9c0-2.4,2-4.3,4.4-4.3s4.3,2,4.3,4.3c0,2.4-2,4.3-4.3,4.3C78.2,39.3,76.3,37.3,76.3,34.9z"></path>


<animateTransform id="id1" attributeName="transform" type="rotate" begin="0" dur="6" repeatCount="indefinite" keyTimes="0;0.5;1.0" values="0 70.85 70.85 ; 0 70.85 70.85 ; 360 70.85 70.85" fill="freeze"></animateTransform>
</g>
</svg>
