<?xml version="1.0" encoding="UTF-8"?>
<svg id="Layer_1" xmlns="http://www.w3.org/2000/svg" version="1.1" viewBox="0 0 113.4 113.4">
  <!-- Generator: Adobe Illustrator 29.3.0, SVG Export Plug-In . SVG Version: 2.1.0 Build 146)  -->
  <defs>
    <style>
      .st0 {
        fill-opacity: .3;
      }

      .st0, .st1, .st2 {
        fill: #010101;
      }

      .st3, .st4, .st5 {
        fill: #fff;
      }

      .st3, .st6 {
        fill-rule: evenodd;
      }

      .st3, .st7, .st1, .st8, .st5 {
        stroke: #010101;
        stroke-width: 1.4px;
      }

      .st9 {
        fill: #818181;
      }

      .st6, .st10 {
        fill: #c0bfbf;
      }

      .st7, .st1, .st5 {
        stroke-linecap: round;
      }

      .st7, .st8 {
        fill: none;
      }

      .st8 {
        stroke-miterlimit: 10;
      }
    </style>
  </defs>
  <path id="path3264" class="st3" d="M19.9,35.3c-7.7.6-28.4,23.2-7.5,43,20.9,19.8,11.1,21.5,11.5,23.4.4,1.9,4.9-1.9,4.2-7.1-1.9-12.9-19.8-21.5-19.6-33.5.2-12.1,11.9-18.5,11.9-18.5l-.4-7.3Z"/>
  <path id="path2407" class="st6" d="M5.7,61.2c0,5.6,2.6,11.8,9.2,17.6,6.1,5.4,9.6,9.3,11.5,12.3v.3c-4.1-11.3-18.8-19.3-18.6-30.2.2-12.7,12.7-19.5,12.7-19.5l-.2-3c-5.8,2.3-14.9,11.5-14.7,22.5Z"/>
  <path id="path2383" class="st5" d="M52.8,17.5c19.3,0,54.8,11.6,54.8,21.9s-35.5,22.4-54.8,22.4-14.6-2.2-20.4-5.4c-8.6-4.7-14.3-8.6-14.3-17s7.6-10.1,11.4-15.3c3.3-4.5,2.6-8.3,6.3-10.5,6-3.6,8.7,3.9,17.1,3.9Z"/>
  <path id="path3397" class="st0" d="M49.1,17.8c1,0,1.9,0,2.9,0,18.7,0,53,13.2,53,22.1,0,8.3-28.5,19.8-47.7,21.8,19.1-1.1,50.3-13.3,50.3-22,0-8.9-34.3-22.1-53-22.1s-3.7.1-5.5.3Z"/>
  <path id="path2390" class="st2" d="M101.6,36c1.7,0,3.7,2,3.7,3.1s-2,3.1-3.7,3.1-1.5-1.4-1.5-3.1-.2-3.1,1.5-3.1Z"/>
  <path id="path2397" class="st1" d="M90.3,45.3c1.6,0,2.9,1,2.9,2.2s-1.3,2.2-2.9,2.2c-1.6,0-2.9-1-2.9-2.2s1.3-2.2,2.9-2.2Z"/>
  <path id="path2399" class="st1" d="M90.3,29.6c1.6,0,2.9,1,2.9,2.2s-1.3,2.2-2.9,2.2c-1.6,0-2.9-1-2.9-2.2s1.3-2.2,2.9-2.2Z"/>
  <path id="path2401" class="st4" d="M89.6,46.6c.5,0,1,.3,1,.6s-.4.6-1,.6c-.5,0-1-.3-1-.6s.4-.6,1-.6h0Z"/>
  <path id="path2403" class="st4" d="M89.9,31.4c.5,0,1,.3,1,.6s-.4.6-1,.6c-.5,0-1-.3-1-.6s.4-.6,1-.6h0Z"/>
  <g id="g3221">
    <path id="path2445" class="st7" d="M100,33.4c-5.9-12.6-.5-18.4-.5-18.4"/>
    <path id="path2447" class="st7" d="M102.2,34.6c-5.9-9.2,3.7-17.2,3.7-17.2"/>
    <path id="path2449" class="st7" d="M103.4,34.6c-4.9-9.7,7.1-11.4,7.1-11.4"/>
  </g>
  <g id="g3384">
    <path id="path3386" class="st7" d="M100.3,45c-5.9,12.6-.5,18.4-.5,18.4"/>
    <path id="path3388" class="st7" d="M102.5,43.7c-5.9,9.2,3.7,17.2,3.7,17.2"/>
    <path id="path3390" class="st7" d="M103.7,43.7c-4.9,9.7,7.1,11.4,7.1,11.4"/>
  </g>
  <path class="st8" d="M49,35.7c-3-5.5.4-13.2,7.6-17.1"/>
  <path class="st8" d="M53.1,35.7c-3-5.5.4-13.2,7.6-17.1"/>
  <path class="st8" d="M57.3,35.7c-3-5.5.4-13.2,7.6-17.1"/>
  <path class="st8" d="M60,35.7c-3-5.5.4-13.2,7.6-17.1"/>
  <path class="st8" d="M49,43.5c-3,5.5.4,13.2,7.6,17.1"/>
  <path class="st8" d="M53.1,43.5c-3,5.5.4,13.2,7.6,17.1"/>
  <path class="st8" d="M57.3,43.5c-3,5.5.4,13.2,7.6,17.1"/>
  <path class="st8" d="M60,43.5c-3,5.5.4,13.2,7.6,17.1"/>
  <path id="path2386" class="st5" d="M84.3,21.8c-.6-5.5-5.3-9.8-11.1-9.8s-11.2,4.9-11.2,10.9,5,10.9,11.2,10.9.9,0,1.3,0"/>
  <path id="path2388" class="st5" d="M74,45.5c-.5,0-.9,0-1.4,0-6.2,0-11.2,4.9-11.2,10.9s5,10.9,11.2,10.9,10.8-4.5,11.1-10.2"/>
  <path id="path2427" class="st10" d="M63.8,22.8c0,3.9,3.2,7.6,7,8.5-1.2-1.9-2-4.2-2-6.7,0-5.1,3-9.3,7-10.6-5.4-2-12.1,2.6-12.1,8.3,0,.2,0,.3,0,.5Z"/>
  <path id="path3405" class="st0" d="M63.3,56.2c0-3.9,3.2-7.6,7.2-8.5-1.3,1.9-2,4.2-2,6.7,0,5.1,3.1,9.3,7.2,10.6-5.5,2-12.4-2.6-12.3-8.3,0-.2,0-.3,0-.5Z"/>
  <path id="path24271" data-name="path2427" class="st10" d="M35.8,15c-2.2,1.7-2.7,5.3-1.4,8.3.4-1.6,1.4-3.1,2.8-4.2,2.9-2.1,6.8-2,9.5.2-1.5-4.4-7.5-7-10.7-4.5,0,0-.2.1-.3.2Z"/>
  <path id="path24272" data-name="path2427" class="st9" d="M35.7,14.8c-1.6,1.3-2.4,3.4-1.9,4.9.5-1,1.3-1.9,2.4-2.7,2.1-1.6,4.6-2,6.1-1.1-.4-2.3-4-3.1-6.4-1.2,0,0-.1,0-.2.1Z"/>
</svg>