<?xml version="1.0" encoding="UTF-8"?>
<svg xmlns="http://www.w3.org/2000/svg" version="1.1" viewBox="0 0 464 464">
	<!-- Generator: Adobe Illustrator 29.5.1, SVG Export Plug-In . SVG Version: 2.1.0 Build 141)  -->
	<defs>
		<style>
      .st0 {
        fill: #3775a4;
      }

      .st1 {
        fill: #e8a73b;
      }

      .st2 {
        fill: #428dc5;
      }

      .st3 {
        fill: #ea9d2d;
      }

      .st4 {
        /* fill: #fbb540; */
      }

      .st5 {
        fill: #fbedbf;
      }
    </style>
	</defs>
	<g id="sunshine">
		<path class="st1" d="M464.002,232.222c0,128.007-103.772,231.778-231.778,231.778S.445,360.229.445,232.222,104.213.444,232.223.444s231.778,103.768,231.778,231.778Z"/>
		<path d="M448.017,232.222C448.017,105.98,347.824,3.64,224.231,3.64S.445,105.98.445,232.222s100.189,228.582,223.786,228.582,223.786-102.34,223.786-228.582Z"/>
		<animate
			id="sunshine2"
			attributeName="fill"
			attributeType="XML"
			values="#e8a73b;#e8a73b;#e8a73b;#e8a73b;#e8a73b;#e8a73b;#e8a73b;#e8a73b;#e8bd3b;#e8ce3b;#f7e36d;#f5e276;#f5e276;#f7e36d;#e8ce3b;#e8bd3b;#e8a73b;#e8a73b;#e8a73b;#e8a73b;#e8a73b;#e8a73b;#e8a73b;#e8a73b;"
			dur="12s"
			repeatCount="indefinite"
			calcMode="linear" />
	</g>	
	<g id="sun">
		<path class="st3" d="M432.032,260.196c0,15.45-12.527,27.973-27.973,27.973s-27.973-12.523-27.973-27.973,12.523-27.973,27.973-27.973,27.973,12.523,27.973,27.973Z"/>
		<path class="st3" d="M400.063,144.307c0,8.827-7.157,15.985-15.985,15.985s-15.985-7.157-15.985-15.985,7.153-15.985,15.985-15.985,15.985,7.157,15.985,15.985Z"/>
		<path class="st3" d="M352.109,360.1h15.985v15.985h-15.985v-15.985Z"/>
	</g>

	<g id="bigyellow">
		<path class="st5" d="M1.241,253.799c.8,5.596,1.6,11.192,2.4,16.785,0,.8,0,2.4.8,3.196.796,5.596,2.396,11.192,3.996,16.785v1.6c1.596,5.592,3.196,11.189,4.792,15.985,0,.8.8,1.596.8,2.396,1.6,5.596,3.996,10.392,6.396,15.985.796.8.796,1.6,1.596,2.4,2.4,4.792,4.796,10.389,7.992,15.185,0,.8.8.8.8,1.596,3.196,4.796,5.596,9.592,8.792,14.389,0,0,0,.8.8.8,3.196,4.792,6.392,9.588,10.389,14.385.8.8.8,1.6,1.6,1.6,3.196,4.792,7.192,8.788,11.189,12.785,0,.8.8.8.8,1.6,7.992,8.792,16.781,16.785,26.373,23.977l.8.8c4.796,3.996,9.588,7.192,14.385,10.389l.8.8c10.389,6.392,21.581,12.789,32.769,17.585,5.592,2.396,11.189,4.792,17.581,6.392l1.6.8c5.596,1.596,11.989,3.996,17.585,5.592,123.882-31.169,199.809-157.447,169.436-281.329C324.932,93.156,259.397,27.617,176.277,7.636c-6.396,1.6-11.989,3.196-17.585,5.596l-1.6.796c-5.592,2.4-11.989,3.996-17.581,6.396-11.189,3.996-22.381,10.389-32.769,16.785l-1.6.796c-4.792,3.2-9.588,6.396-14.385,10.392l-.8.8c-9.588,7.192-18.381,15.185-26.373,23.977,0,.796-.8.796-.8,1.596-3.996,3.996-7.992,8.792-11.189,12.789-.8.8-.8,1.6-1.6,1.6-3.196,4.792-7.192,9.588-10.389,14.385,0,0,0,.8-.8.8-3.196,4.796-6.392,9.588-8.792,14.385,0,.8-.8.8-.8,1.6-2.396,4.796-5.592,10.389-7.992,15.185-.796.8-.796,1.6-1.596,2.396-2.4,4.796-4.796,10.392-6.396,15.985,0,.8-.796,1.6-.796,2.4-1.6,5.592-3.2,10.389-4.796,15.985v1.596c-1.6,5.596-2.4,11.192-3.996,16.785,0,.8,0,2.4-.8,3.196-.8,5.596-1.6,11.192-2.396,16.785v21.581c0,6.392,0,11.989.796,18.381v3.196Z"/>
		     <animate 
                    id="anim" 
                    attributeType="xml"
                    attributeName="fill-opacity" 
                    begin="0s" 
                    values="1;1;1;1;0.8;0.6;0.4;0.2;0;0;0;0;0;0;0;0;0.2;0.4;0.6;0.8;1;1;1;1;" 
                    dur="12s"
                    repeatCount="indefinite" 
            />
	</g>
	<g id="bigblue">
		<path class="st2" d="M159.492,12.433C38.007,52.394-28.328,182.668,11.633,304.954c23.177,70.331,77.524,124.678,147.859,147.859,121.482-39.166,188.62-169.44,149.455-290.925-23.177-71.131-78.324-127.078-149.455-149.455Z"/>
		     <animate 
                    id="anim2" 
                    attributeType="xml"
                    attributeName="fill-opacity" 
                    begin="0s" 
                    values="1;1;1;1;0.8;0.6;0.4;0.2;0;0;0;0;0;0;0;0;0.2;0.4;0.6;0.8;1;1;1;1;" 
                    dur="12s"
                    repeatCount="indefinite" 
            />
	</g>
	<g id="smallblue">
		<g>
			<path class="st0" d="M272.185,288.169c0,8.827-7.157,15.985-15.985,15.985s-15.985-7.157-15.985-15.985,7.153-15.985,15.985-15.985,15.985,7.157,15.985,15.985Z"/>
			<path class="st0" d="M216.239,107.541c1.596-17.585-11.192-33.569-28.773-35.166-17.585-1.6-33.569,11.189-35.166,28.773v4.792c-9.592-1.596-19.185-1.596-28.773,0-31.969,7.196-52.75,33.569-47.154,59.147,5.592,25.573,35.966,41.558,67.935,35.166,31.969-6.396,52.746-33.569,47.154-59.143,0-1.6-.8-3.2-1.6-4.796,14.389-3.196,24.777-14.389,26.377-28.773Z"/>
			<path class="st0" d="M204.25,364.096c0,17.655-14.314,31.969-31.969,31.969s-31.969-14.314-31.969-31.969,14.311-31.969,31.969-31.969,31.969,14.311,31.969,31.969Z"/>
			<path class="st0" d="M304.154,192.261c0,17.655-14.314,31.969-31.969,31.969s-31.969-14.314-31.969-31.969,14.311-31.969,31.969-31.969,31.969,14.311,31.969,31.969Z"/>
			<path class="st0" d="M136.315,272.184h15.985v15.985h-15.985v-15.985Z"/>
		</g>
		<path class="st0" d="M248.208,352.108h15.985v15.985h-15.985v-15.985Z"/>
		<path class="st0" d="M72.376,336.123h15.985v15.985h-15.985v-15.985Z"/>
		<path class="st0" d="M264.193,112.337h15.985v15.985h-15.985v-15.985Z"/>
		<path class="st0" d="M104.346,264.192c0,17.655-14.314,31.969-31.969,31.969s-31.969-14.314-31.969-31.969,14.311-31.969,31.969-31.969,31.969,14.311,31.969,31.969Z"/>
		     <animate 
                    id="anim3" 
                    attributeType="xml"
                    attributeName="fill-opacity" 
                    begin="0s" 
                    values="1;1;1;1;0.8;0.6;0.4;0.2;0;0;0;0;0;0;0;0;0.2;0.4;0.6;0.8;1;1;1;1;" 
                    dur="12s"
                    repeatCount="indefinite" 
            />
	</g>
</svg>
