<svg height="464pt" viewBox="0 0 464.44364 464" width="464pt" xmlns="http://www.w3.org/2000/svg"><path d="m464.445312 232.222656c0 128.128906-103.871093 232-232 232-128.132812 0-232-103.871094-232-232 0-128.132812 103.867188-232 232-232 128.128907 0 232 103.867188 232 232zm0 0" fill="#e8a73b"/><path d="m448.445312 232.222656c0-126.363281-100.289062-228.800781-224-228.800781-123.714843 0-224 102.4375-224 228.800781 0 126.363282 100.285157 228.800782 224 228.800782 123.710938 0 224-102.4375 224-228.800782zm0 0" fill="#fbb540"/><path d="m1.242188 253.820312c.800781 5.601563 1.601562 11.203126 2.402343 16.800782 0 .800781 0 2.402344.800781 3.199218.796876 5.601563 2.398438 11.203126 4 16.800782v1.601562c1.597657 5.597656 3.199219 11.199219 4.796876 16 0 .800782.800781 1.597656.800781 2.398438 1.601562 5.601562 4 10.402344 6.402343 16 .796876.800781.796876 1.601562 1.597657 2.402344 2.402343 4.796874 4.800781 10.398437 8 15.199218 0 .800782.800781.800782.800781 1.597656 3.199219 4.800782 5.601562 9.601563 8.800781 14.402344 0 0 0 .800782.800781.800782 3.199219 4.796874 6.398438 9.597656 10.398438 14.398437.800781.800781.800781 1.601563 1.601562 1.601563 3.199219 4.796874 7.199219 8.796874 11.199219 12.796874 0 .800782.800781.800782.800781 1.601563 8 8.800781 16.796876 16.800781 26.398438 24l.800781.800781c4.800781 4 9.597657 7.199219 14.398438 10.398438l.800781.800781c10.398438 6.398437 21.601562 12.800781 32.800781 17.601563 5.597657 2.398437 11.199219 4.796874 17.597657 6.398437l1.601562.800781c5.601562 1.597656 12 4 17.601562 5.597656 124-31.199218 200-157.597656 169.597657-281.597656-20.800781-83.199218-86.398438-148.800781-169.597657-168.800781-6.402343 1.601563-12 3.199219-17.601562 5.601563l-1.601562.796874c-5.597657 2.402344-12 4-17.597657 6.402344-11.199219 4-22.402343 10.398438-32.800781 16.800782l-1.601562.796874c-4.796876 3.203126-9.597657 6.402344-14.398438 10.402344l-.800781.800782c-9.597657 7.199218-18.398438 15.199218-26.398438 24 0 .796874-.800781.796874-.800781 1.597656-4 4-8 8.800781-11.199219 12.800781-.800781.800781-.800781 1.601563-1.601562 1.601563-3.199219 4.796874-7.199219 9.597656-10.398438 14.398437 0 0 0 .800781-.800781.800781-3.199219 4.800782-6.398438 9.597656-8.800781 14.398438 0 .800781-.800781.800781-.800781 1.601562-2.398438 4.800782-5.597657 10.398438-8 15.199219-.796876.800781-.796876 1.601563-1.597657 2.398437-2.402343 4.800782-4.800781 10.402344-6.402343 16 0 .800782-.796876 1.601563-.796876 2.402344-1.601562 5.597656-3.203124 10.398438-4.800781 16v1.597656c-1.601562 5.601563-2.402343 11.203126-4 16.800782 0 .800781 0 2.402344-.800781 3.199218-.800781 5.601563-1.601562 11.203126-2.398438 16.800782v3.199218 18.402344c0 6.398438 0 12 .796876 18.398438zm0 0" fill="#fbedbf"/><path d="m159.644531 12.222656c-121.601562 40-188 170.398438-148 292.800782 23.199219 70.398437 77.597657 124.796874 148 148 121.597657-39.203126 188.800781-169.601563 149.597657-291.203126-23.199219-71.199218-78.398438-127.199218-149.597657-149.597656zm0 0" fill="#428dc5"/><path d="m432.445312 260.222656c0 15.464844-12.539062 28-28 28-15.464843 0-28-12.535156-28-28s12.535157-28 28-28c15.460938 0 28 12.535156 28 28zm0 0" fill="#ea9d2d"/><path d="m400.445312 144.222656c0 8.835938-7.164062 16-16 16-8.839843 0-16-7.164062-16-16 0-8.835937 7.160157-16 16-16 8.835938 0 16 7.164063 16 16zm0 0" fill="#ea9d2d"/><g fill="#3775a4"><path d="m272.445312 288.222656c0 8.835938-7.164062 16-16 16-8.839843 0-16-7.164062-16-16 0-8.835937 7.160157-16 16-16 8.835938 0 16 7.164063 16 16zm0 0"/><path d="m216.445312 107.421875c1.597657-17.601563-11.203124-33.601563-28.800781-35.199219-17.601562-1.601562-33.601562 11.199219-35.199219 28.800782v4.796874c-9.601562-1.597656-19.203124-1.597656-28.800781 0-32 7.203126-52.800781 33.601563-47.199219 59.203126 5.597657 25.597656 36 41.597656 68 35.199218 32-6.402344 52.796876-33.601562 47.199219-59.199218 0-1.601563-.800781-3.203126-1.601562-4.800782 14.402343-3.199218 24.800781-14.402344 26.402343-28.800781zm0 0"/><path d="m204.445312 364.222656c0 17.671875-14.328124 32-32 32-17.675781 0-32-14.328125-32-32 0-17.675781 14.324219-32 32-32 17.671876 0 32 14.324219 32 32zm0 0"/><path d="m304.445312 192.222656c0 17.671875-14.328124 32-32 32-17.675781 0-32-14.328125-32-32 0-17.675781 14.324219-32 32-32 17.671876 0 32 14.324219 32 32zm0 0"/><path d="m136.445312 272.222656h16v16h-16zm0 0"/></g><path d="m352.445312 360.222656h16v16h-16zm0 0" fill="#ea9d2d"/><path d="m248.445312 352.222656h16v16h-16zm0 0" fill="#3775a4"/><path d="m72.445312 336.222656h16v16h-16zm0 0" fill="#3775a4"/><path d="m264.445312 112.222656h16v16h-16zm0 0" fill="#3775a4"/><path d="m104.445312 264.222656c0 17.671875-14.328124 32-32 32-17.675781 0-32-14.328125-32-32 0-17.675781 14.324219-32 32-32 17.671876 0 32 14.324219 32 32zm0 0" fill="#3775a4"/></svg>