<?xml version="1.0" encoding="utf-8"?>
<!-- Generator: Adobe Illustrator 25.0.0, SVG Export Plug-In . SVG Version: 6.00 Build 0)  -->
<svg version="1.1" xmlns="http://www.w3.org/2000/svg" xmlns:xlink="http://www.w3.org/1999/xlink" x="0px" y="0px"
	 viewBox="0 0 512 512" style="enable-background:new 0 0 512 512;" xml:space="preserve">
<style type="text/css">
	.st0{fill:#FFD15D;}
	.st1{fill:#EA9123;}
	.st2{fill-rule:evenodd;clip-rule:evenodd;fill:#CBCBCA;stroke:#000000;stroke-width:4;}
	.st3{fill-rule:evenodd;clip-rule:evenodd;fill-opacity:0.3137;}
	.st4{fill:#CBCBCA;stroke:#000000;stroke-width:4;stroke-linecap:round;}
	.st5{fill-opacity:0.3137;}
	.st6{stroke:#000000;stroke-width:4;stroke-linecap:round;}
	.st7{fill:#FFFFFF;}
	.st8{fill:none;stroke:#000000;stroke-width:4;stroke-linecap:round;}
	.st9{fill:#FF3200;}
</style>
<g id="Layer_1">
	<path class="st0" d="M20.6,316.1c-7.9,0-14.9-5.6-16.4-13.7c-15.2-83,11.2-168.1,70.7-227.5c99.9-99.9,262.3-99.9,362.2,0
		c6.5,6.5,6.5,17.1,0,23.6c-6.5,6.5-17.1,6.5-23.6,0c-42-42-97.9-65.1-157.5-65.1c-59.6,0-115.5,23.1-157.5,65.1
		c-51.7,51.7-74.7,125.7-61.5,197.9c1.7,9.1-4.3,17.8-13.4,19.4C22.6,316,21.6,316.1,20.6,316.1z"/>
	<path class="st1" d="M255.8,0v33.4c0.1,0,0.2,0,0.2,0c59.6,0,115.5,23.1,157.5,65.1c6.5,6.5,17.1,6.5,23.6,0
		c6.5-6.5,6.5-17.1,0-23.6C387.1,24.9,321.4,0,255.8,0z"/>
	<path class="st0" d="M256,512c-65.6,0-131.2-25-181.1-74.9c-6.5-6.5-6.5-17.1,0-23.6c6.5-6.5,17.1-6.5,23.6,0
		c42,42,97.9,65.1,157.5,65.1c59.6,0,115.5-23.1,157.5-65.1c51.7-51.7,74.7-125.7,61.5-197.9c-1.7-9.1,4.3-17.8,13.4-19.4
		c9-1.6,17.8,4.3,19.4,13.4c15.2,83-11.2,168.1-70.7,227.5C387.2,487,321.6,512,256,512z"/>
	<path class="st1" d="M488.4,196.2c-9.1,1.7-15.1,10.4-13.4,19.4c13.2,72.2-9.8,146.2-61.5,197.9c-42,42-97.9,65.1-157.5,65.1
		c-0.1,0-0.2,0-0.2,0V512c0.1,0,0.2,0,0.2,0c65.6,0,131.2-25,181.1-74.9c59.4-59.5,85.9-144.5,70.7-227.5
		C506.1,200.5,497.3,194.5,488.4,196.2z"/>
	<path class="st0" d="M51.3,477.4c-1.6,0-3.2-0.2-4.7-0.7c-5.9-1.7-10.3-6.5-11.6-12.5l-19.7-90.5c-1.2-5.6,0.5-11.3,4.5-15.4
		c4-4,9.8-5.7,15.4-4.5l90.5,19.7c6,1.3,10.8,5.8,12.5,11.6c1.7,5.9,0.1,12.2-4.2,16.5l-70.9,70.9C59.9,475.7,55.6,477.4,51.3,477.4
		z"/>
	<path class="st1" d="M480.4,158.5c-1.2,0-2.4-0.1-3.5-0.4l-90.5-19.7c-6-1.3-10.8-5.8-12.5-11.6c-1.7-5.9-0.1-12.2,4.2-16.5
		l70.9-70.9c4.3-4.3,10.6-5.9,16.5-4.2c5.9,1.7,10.3,6.5,11.6,12.5l19.7,90.5c1.2,5.6-0.5,11.3-4.5,15.4
		C489,156.8,484.8,158.5,480.4,158.5z"/>
	<path class="st0" d="M255.8,512c-9.2,0-16.7-17.2-16.7-38.4V38.4c0-21.2,7.5-38.4,16.7-38.4s16.7,17.2,16.7,38.4v435.2
		C272.5,494.8,265,512,255.8,512z"/>
	<path class="st1" d="M256.3,0C256.3,0,256.3,0,256.3,0l0,512c0,0,0,0,0,0c9.2,0,16.7-17.2,16.7-38.4V38.4C273,17.2,265.5,0,256.3,0
		z"/>
	<path class="st0" d="M140.6,65.5C98.4,56.8,59.6,36,28.5,4.9C22-1.6,11.4-1.6,4.9,4.9c-6.5,6.5-6.5,17.1,0,23.6
		C34.4,58,69.3,78.8,106.5,90.9"/>
	<path class="st1" d="M371.7,446.6c42.2,8.7,81,29.4,112.1,60.5c6.5,6.5,17.1,6.5,23.6,0c6.5-6.5,6.5-17.1,0-23.6
		c-29.5-29.5-64.5-50.3-101.7-62.3"/>
	<path class="st0" d="M437.7,280.2c0,9.2-7.5,16.7-16.7,16.7H231.7c-9.2,0-16.7-7.5-16.7-16.7c0-9.2,7.5-16.7,16.7-16.7H421
		C430.2,263.5,437.7,271,437.7,280.2z"/>
	<path class="st1" d="M287.7,229.2c0,9.2-7.5,16.7-16.7,16.7H81.7c-9.2,0-16.7-7.5-16.7-16.7c0-9.2,7.5-16.7,16.7-16.7H271
		C280.2,212.5,287.7,220,287.7,229.2z"/>
	<circle class="st1" cx="80.2" cy="229.2" r="34.2"/>
	<circle class="st0" cx="420.2" cy="280.2" r="34.2"/>
</g>
<g id="reddot">
	<circle class="st9" cx="420.2" cy="280.2" r="34.2"/>
		<animate dur="12s" attributeType="CSS" attributeName="opacity" from="1" to="0" repeatCount="indefinite" />
</g>
<g id="Layer_2">
	<g>
		<path id="path3264_2_" class="st2" d="M164.3,181.4c-21.5-5.1-99.7,45.1-62.6,123.4s8.8,74.7,8.1,80.8c-0.7,6,15.2-1.3,18.3-17.8
			c7.6-40.7-32.6-82.5-20.3-118.5c12.4-36.3,50.4-45.5,50.4-45.5L164.3,181.4z"/>
		<path id="path2407_3_" class="st3" d="M102.3,247.6c-5.1,16.3-4.4,35.9,7,58.1c10.5,20.5,15.7,34.8,17.8,44.8l1.7,0.6
			c-3.1-35.3-31.6-70.7-21-101.8c12.4-36.3,50.4-45.5,50.4-45.5l2.3-8.6C143.7,197,112.1,216,102.3,247.6z"/>
		<path id="path2383_2_" class="st4" d="M279.9,129.6c51.2,16.6,127.2,102.7,115.2,139.9c-12.4,38.2-124.2,62.1-175.4,45.5
			c-51.2-16.6-79.2-71.7-62.6-122.8S228.7,113,279.9,129.6z"/>
		<path id="path3397_3_" class="st5" d="M264.3,125.9c2.7,0.6,5.4,1.4,8.1,2.2c51.2,16.6,127.3,102.7,115.2,139.9
			c-11.3,34.9-105.3,57.8-160.6,49c53.8,12.4,156.2-11,168.1-47.5c12.1-37.2-64-123.3-115.2-139.9
			C274.7,127.9,269.5,126.7,264.3,125.9z"/>
		<path id="path2386_2_" class="st4" d="M344,181.7c4.9-22.3-7.8-45-30-52.2c-23.6-7.7-48.9,5.3-56.6,28.8
			c-7.7,23.6,5.3,48.9,28.8,56.6c1.7,0.5,3.3,1,5,1.3"/>
		<path id="path2388_2_" class="st4" d="M279.2,254.8c-1.7-0.8-3.5-1.5-5.3-2.1c-23.6-7.7-48.9,5.2-56.5,28.8
			c-7.7,23.6,5.3,48.9,28.8,56.6c22.7,7.4,47-4.3,55.6-26.2"/>
		<path id="path2390_2_" d="M378.9,253c5.5,1.8,9.9,10.5,8.8,13.9c-1.2,3.8-9.8,7.8-15.3,6c-5.5-1.8-3.4-6.1-1.6-11.6
			S373.4,251.2,378.9,253z"/>
		<path id="path2397_2_" class="st6" d="M332.4,271c5.2,1.7,8.3,6.2,7,10.1c-1.3,3.9-6.5,5.7-11.6,4c-5.2-1.7-8.3-6.2-7-10.1
			C322,271.2,327.2,269.4,332.4,271z"/>
		<path id="path2399_2_" class="st6" d="M348.9,220.2c5.2,1.7,8.3,6.2,7,10.1s-6.5,5.7-11.6,4c-5.2-1.7-8.3-6.2-7-10.1
			C338.5,220.3,343.7,218.5,348.9,220.2z"/>
		<path id="path2401_2_" class="st7" d="M328.8,274.6c1.8,0.6,2.9,1.9,2.6,3c-0.4,1.1-2.1,1.5-3.8,0.9c-1.8-0.6-2.9-1.9-2.6-3
			S327,274,328.8,274.6L328.8,274.6z"/>
		<path id="path2403_2_" class="st7" d="M345.7,225.4c1.8,0.6,2.9,1.9,2.6,3c-0.4,1.1-2.1,1.5-3.8,0.9c-1.8-0.6-2.9-1.9-2.6-3
			C342.2,225.2,344,224.8,345.7,225.4L345.7,225.4z"/>
		<path id="path2427_3_" class="st5" d="M263.5,160.1c-5,16.1,2.6,35,16.8,43.8c-2.5-9.1-2.4-19.5,0.9-29.8
			c6.7-20.6,24.2-34.1,42-33.9c-18.9-15-51.7-5.3-59.1,18C263.9,158.9,263.7,159.5,263.5,160.1z"/>
		<g id="g3221_2_" transform="matrix(1.3917402,0,0,1.4058212,-239.24654,-659.88464)">
			<path id="path2445_2_" class="st8" d="M442.5,642.1c-4.2-33.5,12.8-42.9,12.8-42.9"/>
			<path id="path2447_2_" class="st8" d="M446.7,646.6c-6.7-25.7,21.6-37,21.6-37"/>
			<path id="path2449_2_" class="st8" d="M449.5,647.5c-4.1-26.1,25.2-21,25.2-21"/>
		</g>
		<g id="g3384_2_" transform="matrix(-1.3917402,0,0,1.4058212,667.06082,-659.88464)">
			<path id="path3386_2_" class="st8" d="M217.5,668.7c23.3,24.7,15.1,42.2,15.1,42.2"/>
			<path id="path3388_2_" class="st8" d="M211.4,667.6c20.7,16.9,4.5,42.5,4.5,42.5"/>
			<path id="path3390_2_" class="st8" d="M208.6,668.5c18.8,18.7-7.9,31.6-7.9,31.6"/>
		</g>
		<path id="path3405_3_" class="st5" d="M224,281.8c5.4-15.9,22.7-26.7,39.3-25.6c-7.4,5.9-13.4,14.4-16.8,24.6
			c-6.7,20.6-0.4,41.8,14.1,52.1c-24.1,1.1-45-26.1-37.2-49.3C223.6,283,223.8,282.4,224,281.8z"/>
		<animateTransform attributeName="transform"
			  attributeType="XML"
			  type="rotate"
			  from="0 256 256"
			  to="360 256 256"
			  dur="12s"
			  repeatCount="indefinite"/>
	</g>
</g>

</svg>
